<svg xmlns="http://www.w3.org/2000/svg" xmlns:xlink="http://www.w3.org/1999/xlink" width="25px" height="25px" viewBox="0 0 25 25" version="1.1">
    <title>linkedin</title>
    <g id="Page-1" stroke="none" stroke-width="1" fill="none" fill-rule="evenodd">
        <g id="Markups" transform="translate(-192.000000, -4715.000000)" fill="#9E91F1" fill-rule="nonzero">
            <g id="linkedin-25x25" transform="translate(192.000000, 4715.000000)">
                <polygon id="Fill-3" points="5.67583333 19.0915333 8.64883333 19.0915333 8.64883333 10.1457 5.67583333 10.1457"/>
                <path d="M7.16235,8.92476667 L7.14318333,8.92476667 C6.14518333,8.92476667 5.50001667,8.23726667 5.50001667,7.37893333 C5.50001667,6.50143333 6.16501667,5.83326667 7.18201667,5.83326667 C8.19918333,5.83326667 8.82535,6.50143333 8.84451667,7.37893333 C8.84451667,8.23726667 8.19918333,8.92476667 7.16235,8.92476667" id="Fill-5"/>
                <path d="M19.3706833,19.0916 L16.3975167,19.0916 L16.3975167,14.3056 C16.3975167,13.1032667 15.96735,12.2826 14.8911833,12.2826 C14.06985,12.2826 13.5805167,12.8361 13.3656833,13.3704333 C13.2871833,13.5611 13.2676833,13.8286 13.2676833,14.0957667 L13.2676833,19.0916 L10.29435,19.0916 C10.29435,19.0916 10.33335,10.9851 10.29435,10.1457667 L13.2676833,10.1457667 L13.2676833,11.4129333 C13.6626833,10.8034333 14.3695167,9.93593333 15.94735,9.93593333 C17.90385,9.93593333 19.3706833,11.2144333 19.3706833,13.9622667 L19.3706833,19.0916 Z" id="Fill-6"/>
                <path d="M12.5,2 C6.70101013,2 2,6.70101013 2,12.5 C2,18.2989899 6.70101013,23 12.5,23 C18.2989899,23 23,18.2989899 23,12.5 C23,6.70101013 18.2989899,2 12.5,2 Z M12.5,0 C19.4035594,0 25,5.59644063 25,12.5 C25,19.4035594 19.4035594,25 12.5,25 C5.59644063,25 0,19.4035594 0,12.5 C0,5.59644063 5.59644063,0 12.5,0 Z" id="Rectangle"/>
            </g>
        </g>
    </g>
</svg>