<svg xmlns="http://www.w3.org/2000/svg" xmlns:xlink="http://www.w3.org/1999/xlink" width="25px" height="25px" viewBox="0 0 25 25" version="1.1">
    <title>facebook</title>
    <g id="Page-1" stroke="none" stroke-width="1" fill="none" fill-rule="evenodd">
        <g id="Markups" transform="translate(-192.000000, -4762.000000)" fill="#9E91F1" fill-rule="nonzero">
            <g id="facebook-25x25" transform="translate(192.000000, 4762.000000)">
                <path d="M10.3789785,24.5106645 L10.3789785,23.4334146 L10.3789785,20.0248898 L10.3789785,15.6522993 L8.2560744,15.6522993 C8.02770624,15.6522993 7.83333333,15.4663252 7.83333333,15.2295583 L7.83333333,12.7091096 C7.83333333,12.4723426 8.02770624,12.2863685 8.2560744,12.2863685 L10.3789785,12.2863685 L10.3789785,10.5102161 C10.3789785,7.62601818 12.5186802,5.53710938 15.4620699,5.53710938 C16.5023249,5.53710938 17.0944423,5.63009641 17.4495928,5.68088933 L17.6187692,5.70628579 C17.821741,5.74008108 17.9823186,5.91765633 17.9823186,6.12922683 L17.9823186,8.4802991 C17.9823186,8.59028376 17.9401244,8.70026843 17.8555362,8.77625784 C17.7793469,8.85244722 17.6695622,8.90324014 17.5595775,8.90324014 L15.7834251,8.89484131 C14.7345713,8.89484131 14.5823925,10.1972598 14.5823925,10.9753513 L14.5823925,12.2863685 L17.1788306,12.2863685 C17.3058129,12.2863685 17.4241964,12.3369615 17.5087846,12.4385473 C17.584974,12.5315344 17.6187692,12.6667155 17.5933728,12.785299 L17.0944423,15.3141465 C17.0604471,15.5085194 16.8828718,15.6522993 16.6799001,15.6522993 L14.5823925,15.6522993 L14.5823925,20.0248898 L14.5823925,23.4334146 L14.5823925,24.5106645" id="Fill-1"/>
                <path d="M12.5,2 C6.70101013,2 2,6.70101013 2,12.5 C2,18.2989899 6.70101013,23 12.5,23 C18.2989899,23 23,18.2989899 23,12.5 C23,6.70101013 18.2989899,2 12.5,2 Z M12.5,0 C19.4035594,0 25,5.59644063 25,12.5 C25,19.4035594 19.4035594,25 12.5,25 C5.59644063,25 0,19.4035594 0,12.5 C0,5.59644063 5.59644063,0 12.5,0 Z" id="Rectangle"/>
            </g>
        </g>
    </g>
</svg>