<svg xmlns="http://www.w3.org/2000/svg" width="45" height="46" viewBox="0 0 45 46" fill="none">
<path d="M35.5809 32.4166H42.6601C43.9836 29.5733 44.7531 26.3936 44.7531 23.0306C44.7531 10.7707 34.7498 0.803833 22.3766 0.803833C10.0033 0.803833 0 10.7707 0 23.0306C0 35.2905 10.0033 45.2573 22.3766 45.2573C29.5789 45.2573 35.981 41.8637 40.0746 36.6357H35.5809V32.4166ZM27.2089 32.4166H22.3766V24.9261H16.1899V32.4166H11.3576V13.6446H16.1899V20.707H22.3766V13.6446H27.2089V32.4166ZM31.3333 13.186C32.5029 13.186 33.4571 14.1338 33.4571 15.2956C33.4571 16.4573 32.5029 17.4051 31.3333 17.4051C30.1637 17.4051 29.2096 16.4573 29.2096 15.2956C29.2096 14.1338 30.1637 13.186 31.3333 13.186ZM33.4571 32.4166H29.2096V18.3529H33.4571V32.4166Z" fill="#6E5AEA"/>
<path d="M35.5811 32.4166V36.6357H40.0748C41.0906 35.3516 41.9524 33.9147 42.6603 32.4166H35.5811Z" fill="#180C60"/>
</svg>