<svg xmlns="http://www.w3.org/2000/svg" xmlns:xlink="http://www.w3.org/1999/xlink" width="113px" height="36px" viewBox="0 0 113 36" version="1.1">
    <title>hired logo</title>
    <g id="Page-1" stroke="none" stroke-width="1" fill="none" fill-rule="evenodd">
        <g id="Markups" transform="translate(-184.000000, -4480.000000)" fill-rule="nonzero">
            <g id="logo-white" transform="translate(184.000000, 4480.382353)">
                <polygon id="Path" fill="#FFFFFF" points="15.2957852 28.6176471 15.2957852 17.8007721 6.70421485 17.8007721 6.70421485 28.6007721 0 28.6007721 0 1.61764706 6.70421485 1.61764706 6.70421485 11.7426471 15.2957852 11.7426471 15.2957852 1.61764706 22 1.61764706 22 28.6176471"/>
                <path d="M34,28.6176471 L34,8.31144239 L39.7651633,8.31144239 L39.7651633,10.4689766 L39.8421462,10.4689766 C40.9284603,8.31144239 42.6306376,7.61764706 45,7.61764706 L45,13.7264303 C41.3390358,13.7264303 40.1500778,15.114021 40.1500778,17.4238517 L40.1500778,28.6176471 L34,28.6176471 Z" id="Path" fill="#FFFFFF"/>
                <path d="M50.777896,19.927143 C51.1325708,22.1721182 53.1721655,23.785272 55.4884606,23.652817 C56.9528705,23.6966823 58.337082,22.9989065 59.1513018,21.8063927 L65.3119156,21.8063927 C63.3924863,26.0983036 59.7296451,28.6176471 55.4884606,28.6176471 C49.679466,28.4901923 45.0297985,23.8582906 45.0001399,18.1695418 C44.9707637,12.480793 49.5721252,7.80287895 55.3794974,7.61764706 C61.3976208,7.61764706 65.9992222,12.2706365 65.9992222,18.3679401 C66.0067957,18.8910956 65.9590445,19.4136137 65.8567318,19.927143 L50.777896,19.927143 Z M59.9978623,15.9470726 C59.4131028,13.9521666 57.5495967,12.577633 55.4297881,12.577633 C53.3099795,12.577633 51.4464734,13.9521666 50.8617139,15.9470726 L59.9978623,15.9470726 Z" id="Shape" fill="#FFFFFF"/>
                <path d="M84.265643,27.9751821 L84.265643,25.8418691 L84.1980806,25.8418691 C83.0664107,27.6539497 81.0142035,28.6176471 78.134357,28.6176471 C71.9946257,28.6176471 68,24.0215519 68,18.0416861 C68,12.0618203 72.1044146,7.53161899 78.0245681,7.53161899 C80.2460463,7.46785808 82.3922265,8.32008033 83.9362764,9.87908696 L83.9362764,1.61764706 L90,1.61764706 L90,27.9751821 L84.265643,27.9751821 Z M84.265643,18.0005025 C84.1539421,15.315899 81.8899724,13.1956275 79.1351248,13.1956275 C76.3802771,13.1956275 74.1163074,15.315899 74.0046065,18.0005025 C73.9314438,19.3459911 74.4362768,20.6603892 75.3978002,21.6278627 C76.3593235,22.5953363 77.6906163,23.1284265 79.071785,23.0990382 C80.4773291,23.1523477 81.8423499,22.6334462 82.840169,21.6665179 C83.8379881,20.6995896 84.3788103,19.3716497 84.3332054,18.0005025 L84.265643,18.0005025 Z" id="Shape" fill="#FFFFFF"/>
                <polygon id="Path" fill="#FFFFFF" points="25 28.6176471 25 8.61764706 31 8.61764706 31 28.6176471"/>
                <circle id="Oval" fill="#FFFFFF" cx="28" cy="3.61764706" r="3"/>
                <polygon id="Path" fill="#6E5AEA" points="113 34.6176471 93 34.6176471 93 28.6176471 113 28.6176471"/>
            </g>
        </g>
    </g>
</svg>