<svg xmlns="http://www.w3.org/2000/svg" xmlns:xlink="http://www.w3.org/1999/xlink" width="25px" height="25px" viewBox="0 0 25 25" version="1.1">
    <title>twitter</title>
    <g id="Page-1" stroke="none" stroke-width="1" fill="none" fill-rule="evenodd">
        <g id="Markups" transform="translate(-192.000000, -4848.000000)" fill="#9E91F1" fill-rule="nonzero">
            <g id="twitter-25x25" transform="translate(192.000000, 4848.000000)">
                <path d="M18.88465,9.1267 C18.88465,9.1267 18.8898167,9.52836667 18.8898167,9.6052 C18.8898167,14.7617 14.8639833,18.9417 9.89848333,18.9417 C7.94615,18.9417 6.14065,18.2935333 4.66665,17.1958667 C5.00848333,17.2498667 5.35815,17.2777 5.71481667,17.2777 C7.18048333,17.2777 8.53948333,16.8048667 9.66065,15.9993667 C8.92648333,15.9613667 8.20131667,15.6642 7.62431667,15.1000333 C7.22431667,14.7087 6.94381667,14.2358667 6.78181667,13.7298667 C7.00848333,13.7493667 7.23531667,13.7590333 7.46215,13.7590333 C7.78348333,13.7590333 8.10448333,13.7397 8.42365,13.7015333 C7.54765,13.5232 6.74615,12.9707 6.26415,12.1055333 C5.98881667,11.6117 5.85048333,11.0747 5.83498333,10.5422 C6.31315,10.7360333 6.80765,10.8825333 7.31098333,10.9820333 C6.45548333,10.3845333 5.89265,9.37003333 5.89265,8.2187 C5.89265,7.6482 6.03148333,7.11153333 6.27448333,6.64236667 C7.61615,8.3877 9.87198333,9.84203333 12.7119833,9.88036667 C12.7119833,9.88036667 12.6578167,9.45686667 12.6578167,9.23553333 C12.6578167,7.4487 14.0529833,6.00003333 15.7738167,6.00003333 C16.62115,6.00003333 17.3868167,6.35253333 17.94765,6.9227 C18.6623167,6.91403333 19.31765,6.65486667 19.83965,6.22653333 C19.6563167,6.90736667 19.2608167,7.49336667 18.7359833,7.91336667 C18.7413167,7.94153333 18.7483167,7.9687 18.7528167,7.99686667 C19.2958167,7.96386667 19.8074833,7.78736667 20.2469833,7.49586667 C19.9833167,8.1942 19.4953167,8.76486667 18.88465,9.1267" id="Fill-1"/>
                <path d="M12.5,2 C6.70101013,2 2,6.70101013 2,12.5 C2,18.2989899 6.70101013,23 12.5,23 C18.2989899,23 23,18.2989899 23,12.5 C23,6.70101013 18.2989899,2 12.5,2 Z M12.5,0 C19.4035594,0 25,5.59644063 25,12.5 C25,19.4035594 19.4035594,25 12.5,25 C5.59644063,25 0,19.4035594 0,12.5 C0,5.59644063 5.59644063,0 12.5,0 Z" id="Rectangle"/>
            </g>
        </g>
    </g>
</svg>