<svg xmlns="http://www.w3.org/2000/svg" xmlns:xlink="http://www.w3.org/1999/xlink" width="25px" height="25px" viewBox="0 0 25 25" version="1.1">
    <title>instagram</title>
    <g id="Page-1" stroke="none" stroke-width="1" fill="none" fill-rule="evenodd">
        <g id="Markups" transform="translate(-192.000000, -4808.000000)" fill="#9E91F1" fill-rule="nonzero">
            <g id="instagram-25x25" transform="translate(192.000000, 4808.000000)">
                <path d="M7.73486328,6.90152995 C7.27462599,6.90152995 6.90152995,7.27462599 6.90152995,7.73486328 L6.90152995,17.2651367 C6.90152995,17.725374 7.27462599,18.0984701 7.73486328,18.0984701 L17.2651367,18.0984701 C17.725374,18.0984701 18.0984701,17.725374 18.0984701,17.2651367 L18.0984701,7.73486328 C18.0984701,7.27462599 17.725374,6.90152995 17.2651367,6.90152995 L7.73486328,6.90152995 Z M7.73486328,5.56819661 L17.2651367,5.56819661 C18.4617537,5.56819661 19.4318034,6.53824632 19.4318034,7.73486328 L19.4318034,17.2651367 C19.4318034,18.4617537 18.4617537,19.4318034 17.2651367,19.4318034 L7.73486328,19.4318034 C6.53824632,19.4318034 5.56819661,18.4617537 5.56819661,17.2651367 L5.56819661,7.73486328 C5.56819661,6.53824632 6.53824632,5.56819661 7.73486328,5.56819661 Z" id="Rectangle"/>
                <path d="M12.5,14.5863563 C13.6522628,14.5863563 14.5863563,13.6522628 14.5863563,12.5 C14.5863563,11.3477372 13.6522628,10.4136437 12.5,10.4136437 C11.3477372,10.4136437 10.4136437,11.3477372 10.4136437,12.5 C10.4136437,13.6522628 11.3477372,14.5863563 12.5,14.5863563 Z M12.5,15.9196897 C10.6113575,15.9196897 9.08031033,14.3886425 9.08031033,12.5 C9.08031033,10.6113575 10.6113575,9.08031033 12.5,9.08031033 C14.3886425,9.08031033 15.9196897,10.6113575 15.9196897,12.5 C15.9196897,14.3886425 14.3886425,15.9196897 12.5,15.9196897 Z" id="Oval"/>
                <circle id="Oval-Copy" cx="16.2495655" cy="8.74655338" r="1"/>
                <path d="M12.5,2 C6.70101013,2 2,6.70101013 2,12.5 C2,18.2989899 6.70101013,23 12.5,23 C18.2989899,23 23,18.2989899 23,12.5 C23,6.70101013 18.2989899,2 12.5,2 Z M12.5,0 C19.4035594,0 25,5.59644063 25,12.5 C25,19.4035594 19.4035594,25 12.5,25 C5.59644063,25 0,19.4035594 0,12.5 C0,5.59644063 5.59644063,0 12.5,0 Z" id="Rectangle"/>
            </g>
        </g>
    </g>
</svg>