<svg xmlns="http://www.w3.org/2000/svg" viewBox="0 0 676.91 200">
    <defs>
        <style>
            .cls-1 {
                fill: #0c0c0c;
            }

            .cls-2 {
                fill: #6e5aea;
            }
        </style>
    </defs>
    <g id="Layer_2" data-name="Layer 2">
        <g id="Layer_1-2" data-name="Layer 1">
            <path class="cls-1" d="M93.19,164.11v-64H40.86v64H0V4.11H40.86V64.22H93.19V4.11h40.86v160Z"/>
            <path class="cls-1" d="M205.08,164.11v-120h33.73V56.87h.43C245.51,44.11,255.45,40,269.29,40V76.11C247.89,76.33,241,84.32,241,98v66.16Z"/>
            <path class="cls-1" d="M308.28,115c2,13.62,13.41,22.7,28.11,22.7,9.73,0,16-3.67,21.84-11.24H395C383.53,152.65,361.69,168,336.39,168a63.53,63.53,0,0,1-63.56-63.57C272.83,69.84,300.5,40,335.74,40c35.89,0,63.35,28.33,63.35,65.51a45.77,45.77,0,0,1-.86,9.52ZM363.2,90.81c-2.81-12.32-13.62-20.54-27.46-20.54-13,0-24.21,7.79-27,20.54Z"/>
            <path class="cls-1" d="M504.62,164.11v-13h-.44c-6.7,11-18.81,16.87-35.89,16.87-36.32,0-60.1-27.89-60.1-64.21,0-35.9,24.43-63.79,59.45-63.79,13.84,0,25.08,4.11,35.25,14.27V4.11h35.89v160Zm.21-60.54c0-16.65-12.75-30.06-30.48-30.06-16.87,0-30.27,12.55-30.27,30.06,0,18.16,12.75,30.92,30.05,30.92C491.64,134.49,504.83,121.3,504.83,103.57Z"/>
            <path class="cls-1" d="M151.05,164.11v-120h35.89v120Z"/>
            <circle class="cls-1" cx="168.96" cy="17.95" r="17.95"/>
            <path class="cls-2" d="M676.91,200h-120V164.11h120Z"/>
        </g>
    </g>
</svg>